# xmcd CD database file
#
# Track frame offsets:
#	150
#	16350
#	31125
#	44550
#	55725
#	72225
#	83550
#	96975
#	109275
#	122175
#	136050
#	150150
#	162300
#	175425
#	190500
#
# Disc length: 2670 seconds
#
# Revision: 0
# Processed by: cddbd v1.5.2PL0 Copyright (c) Steve Scherf et al.
# Submitted via: CDex 1.70beta2
#
DISCID=bd0a6c0f
DTITLE=George Highfill - George Arlis Highfill    Second Ed.
DYEAR=1993
DGENRE=Country
TTITLE0=Waitin' Up
TTITLE1=Mama You Can't Blame Me
TTITLE2=Lonestar In Texas
TTITLE3=Oklahoma's Home To Me
TTITLE4=Delicate Hands
TTITLE5=Whatever Happened
TTITLE6=The Right One This Time
TTITLE7=Good News, Good News
TTITLE8=I'll Be There (When The Highlife Lets You Down)
TTITLE9=Too Lazy To Move
TTITLE10=Is There A Place (Where Old Feelings Go)
TTITLE11=Don't Blame Me
TTITLE12=Curtain Hangin' Mood
TTITLE13=The Closest Thing to Perfection
TTITLE14=Just Passin' Through
EXTD=YEAR: 1993
EXTT0=
EXTT1=
EXTT2=
EXTT3=
EXTT4=
EXTT5=
EXTT6=
EXTT7=
EXTT8=
EXTT9=
EXTT10=
EXTT11=
EXTT12=
EXTT13=
EXTT14=
PLAYORDER=
